  0
SECTION
  2
HEADER
  9
$ACADVER
  1
AC1009
  9
$DWGCODEPAGE
  3
ansi_1252
  9
$INSBASE
 10
0.0
 20
0.0
 30
0.0
  9
$EXTMIN
 10
1.5002444894
 20
-36.1999994537
 30
0.0
  9
$EXTMAX
 10
88.0
 20
36.1999980355
 30
0.0
  9
$LIMMIN
 10
0.0
 20
0.0
  9
$LIMMAX
 10
420.0
 20
297.0
  9
$ORTHOMODE
 70
     0
  9
$REGENMODE
 70
     1
  9
$FILLMODE
 70
     1
  9
$QTEXTMODE
 70
     0
  9
$MIRRTEXT
 70
     1
  9
$DRAGMODE
 70
     2
  9
$LTSCALE
 40
1.0
  9
$OSMODE
 70
    37
  9
$ATTMODE
 70
     1
  9
$TEXTSIZE
 40
3.5
  9
$TRACEWID
 40
1.0
  9
$TEXTSTYLE
  7
STANDARD
  9
$CLAYER
  8
0
  9
$CELTYPE
  6
BYLAYER
  9
$CECOLOR
 62
   256
  9
$DIMSCALE
 40
1.0
  9
$DIMASZ
 40
3.302
  9
$DIMEXO
 40
1.0
  9
$DIMDLI
 40
3.75
  9
$DIMRND
 40
0.0
  9
$DIMDLE
 40
0.0
  9
$DIMEXE
 40
1.0
  9
$DIMTP
 40
0.0
  9
$DIMTM
 40
0.0
  9
$DIMTXT
 40
3.5
  9
$DIMCEN
 40
2.5
  9
$DIMTSZ
 40
0.0
  9
$DIMTOL
 70
     0
  9
$DIMLIM
 70
     0
  9
$DIMTIH
 70
     1
  9
$DIMTOH
 70
     1
  9
$DIMSE1
 70
     0
  9
$DIMSE2
 70
     0
  9
$DIMTAD
 70
     1
  9
$DIMZIN
 70
     0
  9
$DIMBLK
  1

  9
$DIMASO
 70
     1
  9
$DIMSHO
 70
     1
  9
$DIMPOST
  1

  9
$DIMAPOST
  1

  9
$DIMALT
 70
     0
  9
$DIMALTD
 70
     3
  9
$DIMALTF
 40
0.0393700787
  9
$DIMLFAC
 40
1.0
  9
$DIMTOFL
 70
     1
  9
$DIMTVP
 40
0.0
  9
$DIMTIX
 70
     0
  9
$DIMSOXD
 70
     0
  9
$DIMSAH
 70
     0
  9
$DIMBLK1
  1

  9
$DIMBLK2
  1

  9
$DIMSTYLE
  2
ISO-25
  9
$DIMCLRD
 70
     0
  9
$DIMCLRE
 70
     0
  9
$DIMCLRT
 70
     0
  9
$DIMTFAC
 40
1.0
  9
$DIMGAP
 40
1.524
  9
$LUNITS
 70
     2
  9
$LUPREC
 70
     2
  9
$SKETCHINC
 40
1.0
  9
$FILLETRAD
 40
10.0
  9
$AUNITS
 70
     0
  9
$AUPREC
 70
     2
  9
$MENU
  1
.
  9
$ELEVATION
 40
0.0
  9
$PELEVATION
 40
0.0
  9
$THICKNESS
 40
0.0
  9
$LIMCHECK
 70
     0
  9
$CHAMFERA
 40
0.0
  9
$CHAMFERB
 40
0.0
  9
$SKPOLY
 70
     0
  9
$TDCREATE
 40
2457037.594112488
  9
$TDUPDATE
 40
2457037.594137812
  9
$TDINDWG
 40
0.0000000116
  9
$TDUSRTIMER
 40
0.0000000116
  9
$USRTIMER
 70
     1
  9
$ANGBASE
 50
0.0
  9
$ANGDIR
 70
     0
  9
$PDMODE
 70
     0
  9
$PDSIZE
 40
-1.0
  9
$PLINEWID
 40
0.0
  9
$COORDS
 70
     1
  9
$SPLFRAME
 70
     0
  9
$SPLINETYPE
 70
     6
  9
$SPLINESEGS
 70
     8
  9
$ATTDIA
 70
     0
  9
$ATTREQ
 70
     1
  9
$HANDLING
 70
     1
  9
$HANDSEED
  5
FF
  9
$SURFTAB1
 70
     6
  9
$SURFTAB2
 70
     6
  9
$SURFTYPE
 70
     6
  9
$SURFU
 70
     6
  9
$SURFV
 70
     6
  9
$UCSNAME
  2

  9
$UCSORG
 10
0.0
 20
0.0
 30
0.0
  9
$UCSXDIR
 10
1.0
 20
0.0
 30
0.0
  9
$UCSYDIR
 10
0.0
 20
1.0
 30
0.0
  9
$PUCSNAME
  2

  9
$PUCSORG
 10
0.0
 20
0.0
 30
0.0
  9
$PUCSXDIR
 10
1.0
 20
0.0
 30
0.0
  9
$PUCSYDIR
 10
0.0
 20
1.0
 30
0.0
  9
$USERI1
 70
     0
  9
$USERI2
 70
     0
  9
$USERI3
 70
     0
  9
$USERI4
 70
     0
  9
$USERI5
 70
     0
  9
$USERR1
 40
0.0
  9
$USERR2
 40
0.0
  9
$USERR3
 40
0.0
  9
$USERR4
 40
0.0
  9
$USERR5
 40
0.0
  9
$WORLDVIEW
 70
     1
  9
$SHADEDGE
 70
     3
  9
$SHADEDIF
 70
    70
  9
$TILEMODE
 70
     1
  9
$MAXACTVP
 70
    64
  9
$PLIMCHECK
 70
     0
  9
$PEXTMIN
 10
1.0000000000E+20
 20
1.0000000000E+20
 30
1.0000000000E+20
  9
$PEXTMAX
 10
-1.0000000000E+20
 20
-1.0000000000E+20
 30
-1.0000000000E+20
  9
$PLIMMIN
 10
0.0
 20
0.0
  9
$PLIMMAX
 10
420.0
 20
297.0
  9
$UNITMODE
 70
     0
  9
$VISRETAIN
 70
     1
  9
$PLINEGEN
 70
     0
  9
$PSLTSCALE
 70
     1
  0
ENDSEC
  0
SECTION
  2
TABLES
  0
TABLE
  2
VPORT
 70
     1
  0
VPORT
  2
*ACTIVE
 70
     0
 10
0.0
 20
0.0
 11
1.0
 21
1.0
 12
44.7501222447
 22
-0.0000007091
 13
0.0
 23
0.0
 14
10.0
 24
10.0
 15
10.0
 25
10.0
 16
0.0
 26
0.0
 36
1.0
 17
0.0
 27
0.0
 37
0.0
 40
73.8479974389
 41
1.1947480457
 42
50.0
 43
0.0
 44
0.0
 50
0.0
 51
0.0
 71
     0
 72
   100
 73
     1
 74
     3
 75
     0
 76
     0
 77
     0
 78
     0
  0
ENDTAB
  0
TABLE
  2
LTYPE
 70
     6
  0
LTYPE
  2
CONTINUOUS
 70
     0
  3
Solid line
 72
    65
 73
     0
 40
0.0
  0
LTYPE
  2
HIDDEN
 70
     0
  3
Hidden __ __ __ __ __ __ __ __ __ __ __ __ __ __
 72
    65
 73
     2
 40
1.905
 49
1.27
 49
-0.635
  0
LTYPE
  2
PHANTOM
 70
     0
  3
Phantom ______  __  __  ______  __  __  ______
 72
    65
 73
     6
 40
12.7
 49
6.35
 49
-1.27
 49
1.27
 49
-1.27
 49
1.27
 49
-1.27
  0
LTYPE
  2
CENTER
 70
     0
  3
Center ____ _ ____ _ ____ _ ____ _ ____ _ ____
 72
    65
 73
     4
 40
10.16
 49
6.35
 49
-1.27
 49
1.27
 49
-1.27
  0
LTYPE
  2
CENTERX2
 70
     0
  3
Center (2x) ________  __  ________  __  _____
 72
    65
 73
     4
 40
20.32
 49
12.7
 49
-2.54
 49
2.54
 49
-2.54
  0
LTYPE
  2
DOT2
 70
     0
  3
Dot (.5x) ........................................
 72
    65
 73
     2
 40
0.635
 49
0.0
 49
-0.635
  0
ENDTAB
  0
TABLE
  2
LAYER
 70
     1
  0
LAYER
  2
0
 70
     0
 62
     7
  6
CONTINUOUS
  0
ENDTAB
  0
TABLE
  2
STYLE
 70
     1
  0
STYLE
  2
STANDARD
 70
     0
 40
0.0
 41
1.0
 50
0.0
 71
     0
 42
3.5
  3
txt
  4

  0
ENDTAB
  0
TABLE
  2
VIEW
 70
     0
  0
ENDTAB
  0
TABLE
  2
UCS
 70
     0
  0
ENDTAB
  0
TABLE
  2
APPID
 70
     1
  0
APPID
  2
ACAD
 70
     0
  0
ENDTAB
  0
TABLE
  2
DIMSTYLE
 70
     1
  0
DIMSTYLE
  2
ISO-25
 70
     0
  3

  4

  5

  6

  7

 40
1.0
 41
2.5
 42
0.625
 43
3.75
 44
1.25
 45
0.0
 46
0.0
 47
0.0
 48
0.0
140
2.5
141
2.5
142
0.0
143
0.0393700787
144
1.0
145
0.0
146
1.0
147
0.625
 71
     0
 72
     0
 73
     0
 74
     0
 75
     0
 76
     0
 77
     1
 78
     8
170
     0
171
     3
172
     1
173
     0
174
     0
175
     0
176
     0
177
     0
178
     0
  0
ENDTAB
  0
ENDSEC
  0
SECTION
  2
BLOCKS
  0
BLOCK
  8
0
  2
$MODEL_SPACE
 70
     0
 10
0.0
 20
0.0
 30
0.0
  3
$MODEL_SPACE
  1

  0
ENDBLK
  5
21
  8
0
  0
BLOCK
 67
     1
  8
0
  2
$PAPER_SPACE
 70
     0
 10
0.0
 20
0.0
 30
0.0
  3
$PAPER_SPACE
  1

  0
ENDBLK
  5
1D
 67
     1
  8
0
  0
ENDSEC
  0
SECTION
  2
ENTITIES
  0
POLYLINE
  5
6F
  8
0
  6
CONTINUOUS
 62
     7
 66
     1
 10
0.0
 20
0.0
 30
0.0
 70
   128
  0
VERTEX
  5
A1
  8
0
  6
CONTINUOUS
 62
     7
 10
88.0
 20
0.0
 30
0.0
  0
VERTEX
  5
A2
  8
0
  6
CONTINUOUS
 62
     7
 10
87.8892848933
 20
2.5934537037
 30
0.0
  0
VERTEX
  5
A3
  8
0
  6
CONTINUOUS
 62
     7
 10
87.5571395732
 20
5.1671475442
 30
0.0
  0
VERTEX
  5
A4
  8
0
  6
CONTINUOUS
 62
     7
 10
87.0035640397
 20
7.7210815215
 30
0.0
  0
VERTEX
  5
A5
  8
0
  6
CONTINUOUS
 62
     7
 10
86.2469716267
 20
10.1976085485
 30
0.0
  0
VERTEX
  5
A6
  8
0
  6
CONTINUOUS
 62
     7
 10
85.2852776624
 20
12.6175833725
 30
0.0
  0
VERTEX
  5
A7
  8
0
  6
CONTINUOUS
 62
     7
 10
84.1184821467
 20
14.9810059937
 30
0.0
  0
VERTEX
  5
A8
  8
0
  6
CONTINUOUS
 62
     7
 10
83.146743109
 20
16.6539327495
 30
0.0
  0
VERTEX
  5
A9
  8
0
  6
CONTINUOUS
 62
     7
 10
82.0763895122
 20
18.2788191294
 30
0.0
  0
VERTEX
  5
AA
  8
0
  6
CONTINUOUS
 62
     7
 10
80.9074213564
 20
19.8556651332
 30
0.0
  0
VERTEX
  5
AB
  8
0
  6
CONTINUOUS
 62
     7
 10
79.6398386415
 20
21.3844707611
 30
0.0
  0
VERTEX
  5
AC
  8
0
  6
CONTINUOUS
 62
     7
 10
77.8801457694
 20
23.2627355949
 30
0.0
  0
VERTEX
  5
AD
  8
0
  6
CONTINUOUS
 62
     7
 10
75.9803087831
 20
25.036134214
 30
0.0
  0
VERTEX
  5
AE
  8
0
  6
CONTINUOUS
 62
     7
 10
73.9403276825
 20
26.7046666183
 30
0.0
  0
VERTEX
  5
AF
  8
0
  6
CONTINUOUS
 62
     7
 10
71.4112094268
 20
28.4981757892
 30
0.0
  0
VERTEX
  5
B0
  8
0
  6
CONTINUOUS
 62
     7
 10
68.7290761093
 20
30.1217719148
 30
0.0
  0
VERTEX
  5
B1
  8
0
  6
CONTINUOUS
 62
     7
 10
65.9384933023
 20
31.5542378849
 30
0.0
  0
VERTEX
  5
B2
  8
0
  6
CONTINUOUS
 62
     7
 10
63.0746015232
 20
32.7873555054
 30
0.0
  0
VERTEX
  5
B3
  8
0
  6
CONTINUOUS
 62
     7
 10
60.1045487055
 20
33.8396024886
 30
0.0
  0
VERTEX
  5
B4
  8
0
  6
CONTINUOUS
 62
     7
 10
57.1188578535
 20
34.6868563557
 30
0.0
  0
VERTEX
  5
B5
  8
0
  6
CONTINUOUS
 62
     7
 10
54.0711987798
 20
35.3485345518
 30
0.0
  0
VERTEX
  5
B6
  8
0
  6
CONTINUOUS
 62
     7
 10
50.9768362551
 20
35.8225936278
 30
0.0
  0
VERTEX
  5
B7
  8
0
  6
CONTINUOUS
 62
     7
 10
47.8666771152
 20
36.1060636338
 30
0.0
  0
VERTEX
  5
B8
  8
0
  6
CONTINUOUS
 62
     7
 10
44.7357588681
 20
36.1999980355
 30
0.0
  0
VERTEX
  5
B9
  8
0
  6
CONTINUOUS
 62
     7
 10
41.622302328
 20
36.1053975937
 30
0.0
  0
VERTEX
  5
BA
  8
0
  6
CONTINUOUS
 62
     7
 10
38.5287306575
 20
35.823253572
 30
0.0
  0
VERTEX
  5
BB
  8
0
  6
CONTINUOUS
 62
     7
 10
35.4413309157
 20
35.3508661673
 30
0.0
  0
VERTEX
  5
BC
  8
0
  6
CONTINUOUS
 62
     7
 10
32.3911928285
 20
34.6893601378
 30
0.0
  0
VERTEX
  5
BD
  8
0
  6
CONTINUOUS
 62
     7
 10
29.4023925791
 20
33.8418102061
 30
0.0
  0
VERTEX
  5
BE
  8
0
  6
CONTINUOUS
 62
     7
 10
26.9337904603
 20
32.9831635233
 30
0.0
  0
VERTEX
  5
BF
  8
0
  6
CONTINUOUS
 62
     7
 10
24.5375531252
 20
32.0000735684
 30
0.0
  0
VERTEX
  5
C0
  8
0
  6
CONTINUOUS
 62
     7
 10
22.2136805735
 20
30.8925403413
 30
0.0
  0
VERTEX
  5
C1
  8
0
  6
CONTINUOUS
 62
     7
 10
19.9208843008
 20
29.6353445382
 30
0.0
  0
VERTEX
  5
C2
  8
0
  6
CONTINUOUS
 62
     7
 10
17.7319784051
 20
28.261610453
 30
0.0
  0
VERTEX
  5
C3
  8
0
  6
CONTINUOUS
 62
     7
 10
15.6469628863
 20
26.7713380856
 30
0.0
  0
VERTEX
  5
C4
  8
0
  6
CONTINUOUS
 62
     7
 10
14.0978687683
 20
25.5317069013
 30
0.0
  0
VERTEX
  5
C5
  8
0
  6
CONTINUOUS
 62
     7
 10
12.6274551852
 20
24.2325590334
 30
0.0
  0
VERTEX
  5
C6
  8
0
  6
CONTINUOUS
 62
     7
 10
11.2357221369
 20
22.8738944817
 30
0.0
  0
VERTEX
  5
C7
  8
0
  6
CONTINUOUS
 62
     7
 10
9.9226696236
 20
21.4557132462
 30
0.0
  0
VERTEX
  5
C8
  8
0
  6
CONTINUOUS
 62
     7
 10
8.24941869
 20
19.4112709306
 30
0.0
  0
VERTEX
  5
C9
  8
0
  6
CONTINUOUS
 62
     7
 10
6.7508088668
 20
17.2807336962
 30
0.0
  0
VERTEX
  5
CA
  8
0
  6
CONTINUOUS
 62
     7
 10
5.4268401542
 20
15.0641015431
 30
0.0
  0
VERTEX
  5
CB
  8
0
  6
CONTINUOUS
 62
     7
 10
4.2612283392
 20
12.721673864
 30
0.0
  0
VERTEX
  5
CC
  8
0
  6
CONTINUOUS
 62
     7
 10
3.2972286253
 20
10.3225441366
 30
0.0
  0
VERTEX
  5
CD
  8
0
  6
CONTINUOUS
 62
     7
 10
2.5348410124
 20
7.8667123608
 30
0.0
  0
VERTEX
  5
CE
  8
0
  6
CONTINUOUS
 62
     7
 10
1.9670989192
 20
5.3059723962
 30
0.0
  0
VERTEX
  5
CF
  8
0
  6
CONTINUOUS
 62
     7
 10
1.6222334116
 20
2.7242822902
 30
0.0
  0
VERTEX
  5
D0
  8
0
  6
CONTINUOUS
 62
     7
 10
1.5002444894
 20
0.1216420425
 30
0.0
  0
VERTEX
  5
D1
  8
0
  6
CONTINUOUS
 62
     7
 10
1.6010500307
 20
-2.4719317268
 30
0.0
  0
VERTEX
  5
D2
  8
0
  6
CONTINUOUS
 62
     7
 10
1.9255386815
 20
-5.0629306436
 30
0.0
  0
VERTEX
  5
D3
  8
0
  6
CONTINUOUS
 62
     7
 10
2.4727579094
 20
-7.6298429832
 30
0.0
  0
VERTEX
  5
D4
  8
0
  6
CONTINUOUS
 62
     7
 10
3.2214177403
 20
-10.1071513216
 30
0.0
  0
VERTEX
  5
D5
  8
0
  6
CONTINUOUS
 62
     7
 10
4.1752192905
 20
-12.5283987117
 30
0.0
  0
VERTEX
  5
D6
  8
0
  6
CONTINUOUS
 62
     7
 10
5.3341625601
 20
-14.8935851532
 30
0.0
  0
VERTEX
  5
D7
  8
0
  6
CONTINUOUS
 62
     7
 10
6.6466295874
 20
-17.1194149927
 30
0.0
  0
VERTEX
  5
D8
  8
0
  6
CONTINUOUS
 62
     7
 10
8.135155513
 20
-19.2599730156
 30
0.0
  0
VERTEX
  5
D9
  8
0
  6
CONTINUOUS
 62
     7
 10
9.7997403368
 20
-21.315259222
 30
0.0
  0
VERTEX
  5
DA
  8
0
  6
CONTINUOUS
 62
     7
 10
11.5639226483
 20
-23.206837493
 30
0.0
  0
VERTEX
  5
DB
  8
0
  6
CONTINUOUS
 62
     7
 10
13.4699892276
 20
-24.9926386128
 30
0.0
  0
VERTEX
  5
DC
  8
0
  6
CONTINUOUS
 62
     7
 10
15.5179400747
 20
-26.6726625815
 30
0.0
  0
VERTEX
  5
DD
  8
0
  6
CONTINUOUS
 62
     7
 10
18.0467753178
 20
-28.4705969111
 30
0.0
  0
VERTEX
  5
DE
  8
0
  6
CONTINUOUS
 62
     7
 10
20.7291704984
 20
-30.098446679
 30
0.0
  0
VERTEX
  5
DF
  8
0
  6
CONTINUOUS
 62
     7
 10
23.5196199187
 20
-31.5344961885
 30
0.0
  0
VERTEX
  5
E0
  8
0
  6
CONTINUOUS
 62
     7
 10
26.3828005863
 20
-32.7706418765
 30
0.0
  0
VERTEX
  5
E1
  8
0
  6
CONTINUOUS
 62
     7
 10
29.3524438679
 20
-33.825898252
 30
0.0
  0
VERTEX
  5
E2
  8
0
  6
CONTINUOUS
 62
     7
 10
32.3537142376
 20
-34.6799963581
 30
0.0
  0
VERTEX
  5
E3
  8
0
  6
CONTINUOUS
 62
     7
 10
35.4177605368
 20
-35.3464942979
 30
0.0
  0
VERTEX
  5
E4
  8
0
  6
CONTINUOUS
 62
     7
 10
38.5167967068
 20
-35.8218161284
 30
0.0
  0
VERTEX
  5
E5
  8
0
  6
CONTINUOUS
 62
     7
 10
41.6192823262
 20
-36.1052094644
 30
0.0
  0
VERTEX
  5
E6
  8
0
  6
CONTINUOUS
 62
     7
 10
44.74248998
 20
-36.1999994537
 30
0.0
  0
VERTEX
  5
E7
  8
0
  6
CONTINUOUS
 62
     7
 10
47.8751816003
 20
-36.105556779
 30
0.0
  0
VERTEX
  5
E8
  8
0
  6
CONTINUOUS
 62
     7
 10
50.9877265895
 20
-35.8212492571
 30
0.0
  0
VERTEX
  5
E9
  8
0
  6
CONTINUOUS
 62
     7
 10
54.082907755
 20
-35.3463841842
 30
0.0
  0
VERTEX
  5
EA
  8
0
  6
CONTINUOUS
 62
     7
 10
57.129829977
 20
-34.6841028445
 30
0.0
  0
VERTEX
  5
EB
  8
0
  6
CONTINUOUS
 62
     7
 10
60.1154120746
 20
-33.8361450364
 30
0.0
  0
VERTEX
  5
EC
  8
0
  6
CONTINUOUS
 62
     7
 10
63.0734735944
 20
-32.787800818
 30
0.0
  0
VERTEX
  5
ED
  8
0
  6
CONTINUOUS
 62
     7
 10
65.9268422581
 20
-31.5596982435
 30
0.0
  0
VERTEX
  5
EE
  8
0
  6
CONTINUOUS
 62
     7
 10
68.7136316274
 20
-30.1304063279
 30
0.0
  0
VERTEX
  5
EF
  8
0
  6
CONTINUOUS
 62
     7
 10
71.3979636513
 20
-28.5068454546
 30
0.0
  0
VERTEX
  5
F0
  8
0
  6
CONTINUOUS
 62
     7
 10
73.9297654179
 20
-26.7127534031
 30
0.0
  0
VERTEX
  5
F1
  8
0
  6
CONTINUOUS
 62
     7
 10
75.9758206773
 20
-25.0400810627
 30
0.0
  0
VERTEX
  5
F2
  8
0
  6
CONTINUOUS
 62
     7
 10
77.8812722861
 20
-23.261593679
 30
0.0
  0
VERTEX
  5
F3
  8
0
  6
CONTINUOUS
 62
     7
 10
79.6461202443
 20
-21.3772912519
 30
0.0
  0
VERTEX
  5
F4
  8
0
  6
CONTINUOUS
 62
     7
 10
80.9054807149
 20
-19.8581622698
 30
0.0
  0
VERTEX
  5
F5
  8
0
  6
CONTINUOUS
 62
     7
 10
82.0676164799
 20
-18.2913318112
 30
0.0
  0
VERTEX
  5
F6
  8
0
  6
CONTINUOUS
 62
     7
 10
83.1325275394
 20
-16.6767998763
 30
0.0
  0
VERTEX
  5
F7
  8
0
  6
CONTINUOUS
 62
     7
 10
84.1002138933
 20
-15.014566465
 30
0.0
  0
VERTEX
  5
F8
  8
0
  6
CONTINUOUS
 62
     7
 10
85.2710590782
 20
-12.6495603432
 30
0.0
  0
VERTEX
  5
F9
  8
0
  6
CONTINUOUS
 62
     7
 10
86.2365236151
 20
-10.2272626354
 30
0.0
  0
VERTEX
  5
FA
  8
0
  6
CONTINUOUS
 62
     7
 10
86.9966075038
 20
-7.7476733415
 30
0.0
  0
VERTEX
  5
FB
  8
0
  6
CONTINUOUS
 62
     7
 10
87.5540477795
 20
-5.1853240089
 30
0.0
  0
VERTEX
  5
FC
  8
0
  6
CONTINUOUS
 62
     7
 10
87.8885119449
 20
-2.6027662284
 30
0.0
  0
VERTEX
  5
FD
  8
0
  6
CONTINUOUS
 62
     7
 10
88.0
 20
0.0
 30
0.0
  0
SEQEND
  5
FE
  8
0
  6
CONTINUOUS
 62
     7
  0
CIRCLE
  5
7C
  8
0
  6
CONTINUOUS
 62
     7
 10
44.75
 20
0.0
 30
0.0
 40
5.5
  0
LINE
  5
89
  8
0
  6
CONTINUOUS
 62
     7
 10
24.125
 20
-9.3097730907
 30
0.0
 11
30.125
 21
-5.8456714755
 31
0.0
  0
LINE
  5
8A
  8
0
  6
CONTINUOUS
 62
     7
 10
30.125
 20
5.8456714755
 30
0.0
 11
24.125
 21
9.3097730907
 31
0.0
  0
LINE
  5
8B
  8
0
  6
CONTINUOUS
 62
     7
 10
57.9728968082
 20
-15.0613744393
 30
0.0
 11
60.8013239329
 21
-17.889801564
 31
0.0
  0
LINE
  5
8C
  8
0
  6
CONTINUOUS
 62
     7
 10
62.9226442765
 20
-15.7684812205
 30
0.0
 11
60.0942171518
 21
-12.9400540957
 31
0.0
  0
LINE
  5
8D
  8
0
  6
CONTINUOUS
 62
     7
 10
31.668524548
 20
15.2027957955
 30
0.0
 11
28.8400974233
 21
18.0312229203
 31
0.0
  0
LINE
  5
8E
  8
0
  6
CONTINUOUS
 62
     7
 10
26.7187770797
 20
15.9099025767
 30
0.0
 11
29.5472042045
 21
13.081475452
 31
0.0
  0
LINE
  5
8F
  8
0
  6
CONTINUOUS
 62
     7
 10
59.9527957955
 20
13.2228968082
 30
0.0
 11
62.7812229203
 21
16.0513239329
 31
0.0
  0
LINE
  5
90
  8
0
  6
CONTINUOUS
 62
     7
 10
60.6599025767
 20
18.1726442765
 30
0.0
 11
57.831475452
 21
15.3442171518
 31
0.0
  0
LINE
  5
91
  8
0
  6
CONTINUOUS
 62
     7
 10
29.6886255607
 20
-13.081475452
 30
0.0
 11
26.860198436
 21
-15.9099025767
 31
0.0
  0
LINE
  5
92
  8
0
  6
CONTINUOUS
 62
     7
 10
28.9815187795
 20
-18.0312229203
 30
0.0
 11
31.8099459043
 21
-15.2027957955
 31
0.0
  0
LINE
  5
93
  8
0
  6
CONTINUOUS
 62
     7
 10
65.375
 20
9.3097730907
 30
0.0
 11
59.375
 21
5.8456714755
 31
0.0
  0
LINE
  5
94
  8
0
  6
CONTINUOUS
 62
     7
 10
59.375
 20
-5.8456714755
 30
0.0
 11
65.375
 21
-9.3097730907
 31
0.0
  0
ARC
  5
95
  8
0
  6
CONTINUOUS
 62
     7
 10
18.75
 20
0.0
 30
0.0
 40
10.74999999999999
 50
60.0
 51
300.0
  0
ARC
  5
96
  8
0
  6
CONTINUOUS
 62
     7
 10
26.75
 20
0.0
 30
0.0
 40
6.749999999999997
 50
300.0
 51
60.0
  0
ARC
  5
97
  8
0
  6
CONTINUOUS
 62
     7
 10
59.03355698
 20
-14.0007142675
 30
0.0
 40
1.500000000000006
 50
45.0
 51
225.0
  0
ARC
  5
98
  8
0
  6
CONTINUOUS
 62
     7
 10
61.8619841047
 20
-16.8291413922
 30
0.0
 40
1.500000000000005
 50
225.0
 51
45.0
  0
ARC
  5
99
  8
0
  6
CONTINUOUS
 62
     7
 10
30.6078643763
 20
14.1421356237
 30
0.0
 40
1.500000000000003
 50
225.0
 51
45.0
  0
ARC
  5
9A
  8
0
  6
CONTINUOUS
 62
     7
 10
27.7794372515
 20
16.9705627485
 30
0.0
 40
1.50000000000001
 50
45.0
 51
225.0
  0
ARC
  5
9B
  8
0
  6
CONTINUOUS
 62
     7
 10
58.8921356237
 20
14.28355698
 30
0.0
 40
1.500000000000005
 50
135.0
 51
315.0
  0
ARC
  5
9C
  8
0
  6
CONTINUOUS
 62
     7
 10
61.7205627485
 20
17.1119841047
 30
0.0
 40
1.500000000000005
 50
315.0
 51
135.0
  0
ARC
  5
9D
  8
0
  6
CONTINUOUS
 62
     7
 10
30.7492857325
 20
-14.1421356237
 30
0.0
 40
1.5
 50
315.0
 51
135.0
  0
ARC
  5
9E
  8
0
  6
CONTINUOUS
 62
     7
 10
27.9208586078
 20
-16.9705627485
 30
0.0
 40
1.500000000000005
 50
135.0
 51
315.0
  0
ARC
  5
9F
  8
0
  6
CONTINUOUS
 62
     7
 10
70.75
 20
0.0
 30
0.0
 40
10.75
 50
240.0
 51
120.0
  0
ARC
  5
A0
  8
0
  6
CONTINUOUS
 62
     7
 10
62.75
 20
0.0
 30
0.0
 40
6.749999999999994
 50
120.0
 51
240.0
  0
ENDSEC
  0
EOF
